<?xml version="1.0" encoding="UTF-8"?>
<!-- Generator: Adobe Illustrator 18.0.0, SVG Export Plug-In . SVG Version: 6.00 Build 0)  -->
<!DOCTYPE svg PUBLIC "-//W3C//DTD SVG 1.1//EN" "http://www.w3.org/Graphics/SVG/1.1/DTD/svg11.dtd">
<svg version="1.1" id="Layer_1" xmlns="http://www.w3.org/2000/svg" xmlns:xlink="http://www.w3.org/1999/xlink" x="0px" y="0px" viewBox="0 0 612 792" enable-background="new 0 0 612 792" xml:space="preserve">
<path fill="#131414" d="M585.8,705.7H26.2C11.5,705.7,0,694.2,0,679.5V119.8c0-14.6,11.5-26.2,26.2-26.2h559.7  c14.6,0,26.2,11.5,26.2,26.2v559.7C612,694.2,600.5,705.7,585.8,705.7z"/>
<g>
	<path fill="#FFFFFF" d="M416.5,200c-72.2,0-130.9,58.6-130.9,130.5v236.8h33.8V417.8c24,26.5,58.6,43.3,97.1,43.3   c72.2,0,130.9-58.6,130.9-130.5C547.5,258.5,488.7,200,416.5,200z M416.5,420.6c-49.8,0-90.3-40.4-90.3-90c0-49.6,40.5-90,90.3-90   c49.8,0,90.3,40.4,90.3,90C506.8,380.2,466.3,420.6,416.5,420.6z"/>
	<ellipse fill="#FFFFFF" cx="165.9" cy="341.6" rx="39.1" ry="38.9"/>
	<ellipse fill="#131414" cx="177.3" cy="320" rx="14.4" ry="14.4"/>
	<ellipse fill="#FFFFFF" cx="416.5" cy="340.6" rx="43.4" ry="43.3"/>
	<ellipse fill="#131414" cx="429.1" cy="316.5" rx="16" ry="16"/>
	<rect x="285.6" y="580.9" fill="#FFFFFF" width="34.2" height="31.2"/>
	<path fill="#FFFFFF" d="M272.3,337.6c0-58.6-47.6-106-106.4-106c-58.7,0-106.4,47.5-106.4,106c0,58.6,47.6,106,106.4,106   c6.4,0,12.8-0.6,18.9-1.7c-0.1,0-0.1,0-0.2,0.1c0,0,12.3,25.2,5.3,39.6c-7,14.4-18.4,47.9,8.2,47.9c26.6,0,15.2-33.5,8.2-47.9   c-6.3-12.9,3.6-42.2,5.8-48.5C247.7,416,272.3,379.6,272.3,337.6z M196.7,396.1L196.7,396.1c-1.4,10.4-10.3,10.3-10.3,10.3   c3.5-4.7-7.5-4-7.5-4l0,0c-4.2,0.8-8.6,1.3-13,1.3c-36.6,0-66.3-29.6-66.3-66.1s29.7-66.1,66.3-66.1c36.6,0,66.3,29.6,66.3,66.1   C232.2,363,217.8,385.1,196.7,396.1z"/>
	<g>
		<path fill="#131414" d="M192.9,521.5c-0.6,0-1.2-0.2-1.6-0.6c-10.6-9.9-3.8-24.9-3.5-25.5c0.5-1.2,1.9-1.7,3.1-1.1    c1.2,0.5,1.7,1.9,1.1,3.1c-0.3,0.6-5.7,12.6,2.4,20.2c0.9,0.9,1,2.4,0.1,3.3C194.1,521.2,193.5,521.5,192.9,521.5z"/>
	</g>
</g>
</svg>